<?xml version="1.0" encoding="utf-8"?>
<!-- Generator: Adobe Illustrator 24.2.1, SVG Export Plug-In . SVG Version: 6.00 Build 0)  -->
<svg version="1.1" id="Layer_1" xmlns="http://www.w3.org/2000/svg" xmlns:xlink="http://www.w3.org/1999/xlink" x="0px" y="0px"
	 viewBox="0 0 1920 1080" style="enable-background:new 0 0 1920 1080;" xml:space="preserve">
<style type="text/css">
	.st0{fill:none;stroke:#FFFFFF;stroke-width:0.5;}
</style>
<rect width="1920" height="1080"/>
<g id="Whangaehu_2_">
	<g id="Patterns_3_">
		<g id="Whangaehu_3_">
			<g id="Shape_5_" transform="translate(-146.000000, -400.000000)">
				<path class="st0" d="M803.4,1282.31c-0.13-33.89-51.82-72-73.9-91.65c-43.66-38.86-89.06-74.75-134.05-111.21
					c-44.98-36.46-90.09-72.82-132.99-112.85c-27.85-25.98-60.58-55.25-79.47-92.35c-40.24-79.07,86.63-67.33,119.5-69.06
					c83.61-4.42,179.5-2.4,257.87-43.58c46.78-24.58,65.44-65.81,55.39-125.89c-3.24-19.54-12.83-42.03-4.7-61.06
					c8.67-20.33,28.62-32.06,45.18-39.93c60.39-28.66,129.83-31.98,193.73-35.58c68.9-3.95,138.45-2.8,206.87-3.1
					c29.01-0.13,59.31-12.85,86.93-23.19c36.22-13.55,72-28.77,107.92-43.49c79.02-32.3,160.43-66.32,244.03-74.52
					c52.35-5.14,109.57,1.81,150.24,46.51c20.42,22.45,31.11,55.81,42.91,85.45c14.29,35.81,28.01,71.96,43.23,107.21
					c49.01,113.51,118.98,224.44,232.55,230.01c17.18,0.84,34.05-1.9,51.15-2.41c10.89-0.32,20.58,2.9,24.63,16.8
					c10.18,34.88-21.81,89.94-34.93,117.61c-28.72,60.58-61.11,118.44-91.44,177.8c-20.07,39.26-54.81,92.91-55.18,140.6
					c-0.32,42.5,45.99,73.22,71.2,94.15c23.63,19.6,66.43,47.03,69.02,86.9c1.25,19.33-9.19,35.35-20.1,47.79
					c-19.12,21.74-41.14,37.08-58.34,61.89c-28.2,40.7-51.76,96.7-47.93,151.55c2.66,38,20.42,62.89,43.02,86.68
					c9.5,10,17.21,17.08,17.71,33.32c0.81,25.79-7.47,53.08-14.28,76.98c-24.39,85.56-59.02,168.3-97.56,245.55
					c-19.25,38.61-40.05,77.09-65.58,110.02c-16.72,21.63-39.27,47.36-64.77,47.33c-29.53,0-60.77-13.01-89.48-22.73
					c-53.61-18.18-106.57-39.19-159.32-60.74c-121.99-49.87-242.83-103.78-362.53-161.74c-84.31-40.89-170.41-81.84-249.68-136.2
					c-15.46-10.67-30.05-23.12-43.58-37.17c-14.45-14.76-32.39-21.36-50.57-26.28c-112.87-30.55-236.52-7.1-349.86,7.61
					c-28.77,3.73-57.53,7.47-86.38,10.08c-24.8,2.24-54.49,8.68-78.59-0.99c-47.49-19.03-5.98-89.15,11.58-117.72
					c61.8-100.61,141.54-185.72,215.44-272.62c35.14-41.38,70.55-82.66,103.77-126.38C769.4,1348.98,803.52,1312.02,803.4,1282.31z"
					/>
				<path class="st0" d="M824.7,1276.6c-18.94-35.86-52.18-62.37-79.77-87.31c-39.7-35.91-80.65-69.83-120.98-104.72
					c-38.14-33-76.35-66.37-111.67-103.84c-21.54-22.85-48.56-50.18-58.76-83.97c-22.13-73.25,96.91-62.14,126.3-64.06
					c73.06-4.74,155.89-5.83,223.47-44.4c42.2-24.09,59.54-64.03,50.54-119.48c-3.11-19.19-8.72-35.57-1.62-54.65
					c8.21-22.09,27.09-35.86,44.39-45.58c54.21-30.46,118.29-36.93,177.06-42.31c60.71-5.56,123.96-9.48,182.72-5.41
					c23.5,1.62,50.54-7.58,73.79-14.63c35.78-10.87,71.19-23.4,106.79-35.06c72.35-23.71,146.58-46.55,221.85-49.15
					c54.34-1.88,111,8.3,156.21,47.63c45.82,39.88,66.15,101.71,91.55,160.48c43.88,101.61,103.15,225.15,204.67,246.62
					c15.39,3.26,30.19,1.49,45.57,2.29c7.91,0.41,16.91,1.69,20.92,11.2c10.41,24.7-18.12,69.86-27.72,88.77
					c-26.53,52.28-56.35,102-84.15,153.28c-22.08,40.71-50.06,85.95-58.6,134.21c-10.36,58.56,57.35,100.23,81.16,141.47
					c41.28,71.51-36.93,112.25-75.49,146.34c-44.28,39.14-80.83,110.55-41.13,171.11c15.18,23.16,33.87,36.96,40.65,67.18
					c10.61,47.26,2.58,101.27-6.02,147.99c-12.96,70.23-33.48,139.7-61.37,203.18c-19.98,45.44-53.13,116.7-101.67,111.36
					c-32.68-3.57-65.9-16.6-97.71-28.12c-47.64-17.24-94.68-36.89-141.47-57.3c-108.01-46.99-214.83-98.79-319.55-155.78
					c-71.45-38.89-270.77-197.84-285.76-203.51c-44.72-16.89-95.56-13.92-141.66-11.3c-61.33,3.48-122.34,12.49-183.31,20.84
					c-29.02,3.95-58.19,8.78-87.37,10.73c-20.77,1.38-48.04,2.57-66.23-12.16c-35.5-28.74,4.05-94.49,20.41-122.32
					c50.11-85.29,113.5-159.14,172.94-234.66c29.17-37.08,58.78-74.09,85.26-114.14C809.64,1331.22,836.41,1298.75,824.7,1276.6z"/>
				<path class="st0" d="M850.91,1258.2c-51.73-71.76-123.13-125.14-184.76-185.07c-30.93-30.09-62.05-61-88.73-96.84
					c-13.88-18.64-31.2-42.21-33.88-68.19c-7.15-69.5,100.14-60.1,132.26-62.74c62.09-5.12,132.22-9,188.55-44.47
					c34.41-21.68,51.36-57.27,44.93-104.04c-2.85-20.75-7.29-38.38,0-58.76c7.39-20.64,22.78-35.21,38.37-46.13
					c44.79-31.41,100.45-41.45,150.88-48.93c59.16-8.71,118.76-12.11,178.33-10.18c52.17,1.67,104.09-17.12,155.03-29.5
					c67.48-16.39,136.19-30.71,205.24-28.55c54.54,1.72,109.5,15.23,156.12,51.13c47.37,36.56,75.86,91.29,101.54,150.34
					c38.82,89.27,87.2,208.91,172.36,242.81c12.39,4.94,23.93,5.48,36.71,6.34c6.21,0.41,14.22,0.54,17.3,8.44
					c7.4,19.01-19.97,55.87-27.61,68.72c-24.38,41.01-50.82,80.17-75.81,120.64c-23.33,37.78-48.74,77.15-63.24,121.42
					c-23.06,70.51,50.67,111.74,48.61,178.92c-1.29,41.71-34.02,71.62-59.95,92.32c-31.92,25.45-77.87,42.18-93.85,88.61
					c-11.9,34.59,6.77,54.72,21.15,80.96c24.37,44.47,26.03,104.75,23.49,156.22c-3.42,69.56-16.78,140.15-39.52,204.08
					c-10.3,28.98-22.93,59.13-41.51,81.65c-17.41,21.1-33.89,26.5-57.15,22.19c-71.22-13.24-143.14-50.15-211.44-83.12
					c-85.81-41.43-170.44-87.16-252.55-138.61c-55.99-35.09-113.24-72.22-162.38-120.7c-12.81-12.64-25.92-26.38-35.29-43.05
					c-7.08-12.53-10.09-22.88-22.02-30.03c-35.37-21.2-84.57-15.65-122.46-13.45c-60.6,3.51-120.9,12.85-181.12,21.26
					c-35.14,4.94-101.34,20.49-129.41-16.8c-24.22-32.2,5.01-87.09,19.94-115.45c37.77-71.72,86.35-134.67,131.42-199.49
					c20.66-29.71,42.13-59.64,59.19-92.66c4.36-8.42,11.34-19.58,12.54-29.8C863.54,1275.99,857.26,1267.05,850.91,1258.2z"/>
				<path class="st0" d="M855.36,1274.91c-47.8-63.45-105.39-115.58-156.71-174.96c-23.01-26.62-46.25-54.55-63.78-87.03
					c-9.43-17.47-19.45-39.45-16.84-61.16c7.46-62.3,95.7-56.68,131.35-60.33c52.97-5.36,113.83-10.76,160.67-44.36
					c30.68-22,42.19-54.5,36.46-96.41c-6.15-44.96,7.6-77.59,38.89-102.67c39.23-31.42,88.75-44.23,134.3-53.32
					c54.88-10.91,110.45-15.75,166.05-14.45c54.07,1.27,106.45-9.79,160.16-16.98c71.21-9.52,144.71-14.22,215.11,5.3
					c61.3,17,116.67,54.46,158.18,112.4c43.35,60.47,64.82,136.64,100.02,203.54c21.96,41.72,52.58,96.92,93.6,113.14
					c13.68,5.41,38.62-1.89,27.69,24.72c-6.25,15.22-17.94,28.57-27.17,41.01c-14.92,20.11-30.34,39.66-45.52,59.49
					c-32.34,42.27-66.98,85.44-91.22,135.49c-30.55,63.02,14.86,111.52,9.33,175.41c-2.97,34.39-22.56,61.83-43.29,83.39
					c-13.41,13.96-28.08,26.06-43.06,37.34c-15.65,11.79-34.16,20.77-47.8,36.01c-19.45,21.69-11,47.36-7.36,75.4
					c6.42,49.27,7.83,99.32,4.2,149.02c-4.44,60.91-14.85,123.56-36.78,178.91c-8.53,21.55-19.34,44.39-35.39,58.84
					c-16.05,14.45-32.65,13.46-51.04,9.11c-54.55-12.86-108.99-42.77-160.74-71.13c-64.77-35.49-128.27-75.16-188.9-120.29
					c-41.86-31.15-83.85-64.81-118.87-107.05c-10.18-12.29-19.87-25.46-27.71-40.15c-5.38-10.08-8.26-23.08-16.06-30.66
					c-24.39-23.65-73.35-16.58-101.95-15.21c-57.08,2.74-113.26,15.76-170.27,18.93c-31.11,1.73-79.84,6.08-102.69-26.25
					c-21.49-30.39-2.03-78.26,10.82-107.54c25.24-57.58,59.15-108.87,89.54-162.4c12.49-22.02,26.19-45.07,34.28-70.22
					C880.03,1307.4,867.61,1291.18,855.36,1274.91z"/>
				<path class="st0" d="M867.11,1275.95c-38.05-55.84-83.92-105.4-122.24-162.14c-22.43-33.23-61.07-89.1-43.72-135.95
					c19.03-51.48,85.38-52.88,123.73-57.03c45.64-4.94,99.24-11.68,138.31-43.83c12.35-10.16,22.88-23.61,27.34-41.33
					c4.78-18.96-0.45-35.55-1.13-54.53c-1.42-39.82,18.05-71.78,43.83-93.74c36.43-31.04,81.98-45.71,125.01-55.94
					c48.75-11.54,98.31-17.23,147.96-16.99c47.46,0.2,94.41-1.09,141.92-2.57c62.13-1.98,125.13,1.21,185.39,21.35
					c59.37,19.85,113.34,57.05,155.74,111.77c41.36,53.4,69.27,118.66,93.71,185.14c13.87,37.73,37.3,94.12,70.38,113.18
					c14.71,8.48,29.14,7.9,13.5,29.96c-19.7,27.78-46.24,50.07-69.06,73.83c-32.91,34.29-66.64,69.25-94.27,110.01
					c-17.64,26.03-25.5,51.29-24.29,85c0.94,25.68,5.2,51.09,3.04,76.86c-5.04,60.5-44.09,101.98-78.61,140.62
					c-22.21,24.85-42.49,43.8-53.92,79.14c-13.52,41.77-19.19,87.22-28.23,130.59c-9.93,47.63-21.39,97.17-43.05,139.13
					c-19.28,37.35-42.74,54.1-77.84,44.03c-54.75-15.68-108.72-54.32-157.32-90.05c-49.47-36.36-98.1-77.25-139.09-127.23
					c-22.13-26.99-37.24-58.68-56.9-87.67c-24.72-36.4-80.66-22.61-113.9-19.53c-55.18,5.12-228.81,43.39-212.79-80.58
					c6.69-51.75,33.02-99.51,52.28-145.17c7.98-18.95,19.53-41.69,21.34-63.41C896.22,1315.22,878.55,1292.76,867.11,1275.95z"/>
				<path class="st0" d="M887.2,1280.69c-29.08-50.6-63.87-98.4-88.82-153.05c-16.19-35.39-32.08-82.68-11.2-120.13
					c23.57-42.26,75.53-52.11,113.71-57.5c39.34-5.54,86.3-10.21,118.45-42.25c10.23-10.21,18.66-23.97,20.23-40.45
					c1.51-15.81-2.76-31.62-1.34-47.71c3.17-36.14,21.13-65.92,44.28-87.52c68.49-63.9,170.42-78.11,253.06-79.78
					c41.36-0.83,83.93,3.53,125.56,6.65c54.02,4.05,108.12,12.75,159.63,33.7c109.53,44.54,182.95,143.33,234.22,266.25
					c16.14,38.69,28.49,80.56,53.78,111.65c13.04,16.06,10.19,27.59-3.14,42.23c-20.84,22.88-46.26,40.37-69.39,59.47
					c-32.9,27.16-66.5,54.73-95.59,87.27c-20.05,22.43-34.29,44.04-38.61,77.67c-3.08,23.98-2.36,48.41-4.22,72.54
					c-3.53,45.84-15.61,91.33-37,129.35c-16.99,30.14-37.23,57.52-58.14,83.64c-27.18,34-50.17,68.54-70.82,108.89
					c-27.37,53.41-65.83,151.94-130.29,125.87c-71.1-28.77-137.74-101.88-183.36-172.71c-15.32-23.78-27.9-52.95-48.56-70.49
					c-30.93-26.21-62.31-25.29-99.1-25.19c-55.08,0.15-174.93,14.74-176.22-85.96c-0.51-39.9,13.64-77.62,20.41-116
					C922.37,1344.16,907.06,1315.17,887.2,1280.69z"/>
				<path class="st0" d="M908.86,1285.2c-28.76-65.95-93.25-174.31-44.2-247.64c25.91-38.75,71.74-53.32,110.18-62
					c30.94-7.02,68.25-9.66,91.63-39.42c17.18-21.88,9.55-53.72,16.14-81.11c8.17-33.96,26.92-61.74,49.97-82.62
					c64.4-58.36,153.93-76.27,231.4-80.09c80.45-3.95,169.1,14.52,244.81,50.06c94.4,44.32,165.12,128.25,214.57,234.53
					c9.13,19.62,17.42,39.75,26.18,59.61c5.89,13.32,14.62,26.2,19.25,40.22c7.72,23.36-1.38,42.46-15.97,57.68
					c-20.99,21.92-46.77,37.52-70.7,53.97c-32.72,22.51-66.17,44.62-96.61,71.03c-20.45,17.77-41.86,36.92-49.18,67.75
					c-5,21.03-6.03,43.31-5.85,65.09c0.39,46.7-1.62,84.47-19.48,127.24c-29.39,70.22-74.59,133.36-122.34,185.9
					c-37.47,41.23-96.77,105.28-151.37,77.72c-48.99-24.68-77.64-83.77-109.92-131.54c-15.69-23.22-33.32-44.43-54.03-60.95
					c-26.11-20.82-50.7-29.56-81.63-32.97c-52.07-5.74-130.59-7.23-146.69-83.45c-5.94-28.13-2.55-57.27-5.67-85.76
					C935.28,1350.77,923.37,1318.47,908.86,1285.2z"/>
				<path class="st0" d="M938.77,1287.64c-20.48-72.16-47.39-163.1,2.08-227.23c23.96-31.07,57.66-48.43,90.28-61.41
					c23.36-9.3,60.45-12.04,74.78-40.64c10.52-21.04,11.98-50.08,21.49-72.62c13.08-31,32.89-56.53,56.12-76.52
					c60.54-52.08,139.4-72.21,211.31-77.97c156.25-12.5,315.24,87.08,398.85,250.93c24.93,48.84,57.11,100.82,16.82,150.72
					c-43.99,54.43-110.25,79.94-162.75,118.62c-20.06,14.77-45.62,32.52-56.81,59.26c-6.73,16.07-7.19,36.24-7.5,53.93
					c-0.81,45.06-3.88,85.59-18.72,127.64c-22.93,64.98-59.5,124.93-100.94,174.04c-36.14,42.82-87.67,93.14-140.16,62.27
					c-40.24-23.72-65.76-74.08-97.03-111.19c-34.79-41.34-77.83-69.19-125.08-82.8c-45.97-13.21-96.39-22.11-120.62-78.22
					c-8.31-19.25-16.99-44.16-20.11-65.47C955.75,1355.87,948.39,1321.3,938.77,1287.64L938.77,1287.64z"/>
				<path class="st0" d="M972.11,1288.15c-9.47-72.86-10.53-148.84,33.49-206.27c20.55-26.79,46.52-45.83,72.78-63.07
					c19.32-12.69,39.28-23.39,53.71-44.19c13.37-19.26,23.53-41.63,36.44-61.39c17.03-26.19,37.4-48.87,60.34-67.15
					c57.5-45.75,127.44-67.14,194.35-74.56c32.39-3.61,67.53-5.48,99.7,4.35c31.07,9.49,61.8,24.49,90.37,41.98
					c60.74,37.15,113.37,91.55,151.53,160.33c26.16,47.18,40.31,93.05,6.43,140.92c-38.2,53.95-98.09,83.72-147.46,118.73
					c-33.86,24.01-71.81,47.55-78.13,98.59c-5.04,40.61-9.13,79.15-22.16,117.53c-19.39,56.62-47.91,107.9-83.85,150.82
					c-32.87,39.1-74.45,72.27-121.47,51.39c-37.25-16.57-66.15-53.7-98.7-80.25c-36.27-29.65-76.12-45.99-118.09-59.14
					c-37.71-11.86-73.22-30.08-97.6-68.77c-4.99-7.91-10.23-16.51-14.07-25.36c-4.91-11.29-4.53-22.47-5.49-35.12
					C981.73,1354.13,976.4,1321.13,972.11,1288.15z"/>
				<path class="st0" d="M1008.88,1282.2c0.81-69.21,14.45-134.62,51.8-188.56c15.97-23.07,35.04-42.08,52.61-63.22
					c14.15-17.05,27.52-32.88,43.79-46.93c38.59-33.26,69.96-76.3,110.97-105.91c54.75-39.59,117.46-61.48,179.69-70.23
					c30.39-4.28,61.78-5.77,92.52-0.94c26.4,4.15,51.69,18.71,75.15,33.61c45.98,29.18,90.62,70.66,120.47,123.13
					c65.82,115.68-63.95,199.79-130.55,249.05c-30.63,22.66-77.43,48.9-89.98,93.78c-8.97,32.06-14.43,64.67-25.98,95.74
					c-31.03,83.44-94.01,181.59-177.94,168.52c-35.91-5.58-68.65-28.26-102.17-43.48c-34.52-15.68-70.15-24.42-106.04-34.01
					c-33.53-8.96-60.26-21.71-81.92-55.89c-10.35-16.32-9.44-35.86-10.36-55.89C1009.45,1348.06,1008.51,1314.98,1008.88,1282.2z"/>
				<path class="st0" d="M1042.36,1273.33c13.48-104.47,63.56-218.51,137.2-279.18c86.62-71.37,180.45-131.46,283.94-148.74
					c47.98-8.01,100.54-11.95,145.81,14.24c34.46,19.92,74.48,49.7,93.44,91.59c46.39,102.44-56.8,183.99-115.59,231.39
					c-31.65,25.51-71.94,50.38-95.8,87.63c-13.84,21.6-20.91,50.18-32.08,73.91c-33.86,71.9-89.61,129.89-159.04,140.26
					c-32.11,4.79-64.45-1.14-96.31-5.85c-32.62-4.82-65.64-7.44-98.05-14.16c-25.87-5.37-56.37-14.47-65.9-48.26
					C1027.97,1373.57,1036.86,1315.99,1042.36,1273.33z"/>
				<path class="st0" d="M1075.19,1256.55c19.67-98.22,61.31-194.02,131.31-252.65c37.12-31.09,80.22-52.55,121.59-73.76
					c46.9-24.03,95.9-42.69,145.95-51.94c62.31-11.53,163.24-21.92,195.79,64.73c32.31,86.01-49.34,162.13-97.63,205.51
					c-30.96,27.79-64.09,53.29-93.67,83.67c-16.04,16.47-28.39,35.5-41.97,54.82c-37.51,53.52-90.99,95.89-145.5,118.51
					c-52.83,21.93-118.19,31.63-173.95,24.39c-24.06-3.11-41.26-13.62-48.54-43.5C1058.49,1344.8,1067.06,1297.12,1075.19,1256.55z"
					/>
				<path class="st0" d="M1107.81,1230.1c19.54-86.48,61.67-165.46,123.14-217.36c68.9-58.18,157.61-90.51,239.16-106.95
					c43.34-8.73,137.27-32.41,159.36,35.35s-41.77,134.54-78.53,171.3c-44.61,44.55-92.71,87.56-140.76,127.53
					c-41.74,34.75-86.28,70.28-131.49,97.12c-25.5,15.22-52.06,27.65-79.37,37.14c-20.22,6.97-45.94,17.37-67.14,12.18
					C1078.69,1373.3,1098.47,1271.44,1107.81,1230.1z"/>
				<path class="st0" d="M1148.08,1204.2c42.86-163.54,178.67-243.97,309.43-272c30.39-6.51,115.56-29.97,132.55,19.99
					c16.46,48.44-35.88,105.88-60.39,133.09c-75.93,84.33-169.75,146.86-258.65,208.8c-27.75,19.33-77.79,61.29-112.21,41.94
					C1121.43,1314.97,1139.2,1238.11,1148.08,1204.2z"/>
				<path class="st0" d="M1191.99,1172.72c37.28-120.43,145.7-189.5,245.38-212.27c24.42-5.57,86.42-22.92,104.92,10.69
					c17.11,31.09-23.73,76.14-39.01,94.04c-34.01,39.86-74.33,72.7-114.15,104.26c-36.82,29.2-74.04,59.13-112.79,83.83
					c-20.41,13-58.68,40.74-81.87,20.67C1169.5,1252.34,1183.71,1199.47,1191.99,1172.72z"/>
				<path class="st0" d="M1240.37,1137.54c28.41-78.65,104.51-129.72,171.63-146.69c18.06-4.56,57.1-16.38,72.34,4.63
					c14.03,19.34-8.58,47.7-18.61,60.8c-44.47,58.05-109.59,109.9-169.25,141.75c-15,8.01-41.97,23.72-57.4,7.56
					C1223.24,1188.98,1233.84,1155.6,1240.37,1137.54z"/>
				<path class="st0" d="M1291.7,1104.5c16.01-39.05,57.85-68.52,92.51-77.9c24.39-6.6,53.71-0.9,32.46,33.1
					c-21.12,33.73-60.3,64.55-93.52,78.21C1297.81,1148.32,1277.95,1138.05,1291.7,1104.5z"/>
				<path class="st0" d="M-6.58,1374.99c-1.03-77.15-34.62-157.34-18.03-235.96c13.62-64.57,82.21-69.96,123.35-99.21
					c32.7-23.24,51.25-64.41,68.93-103.91c15.89-35.46,30.16-71.99,46.89-106.87c10.83-22.55,29.44-66.83,52.93-67.63
					c22.49-0.77,43.12,33.73,56.18,54.13c17.04,26.59,32.14,54.93,48.68,81.94c27.88,45.56,61.33,79.29,99.62,111.21
					c43.58,36.32,87.89,71.4,132.91,105.23c33.15,24.99,66.52,49.79,98.39,77.24c19.99,17.23,64.1,49.55,64.3,81.31
					c0.1,15.15-11.67,31.94-19.6,44.05c-13.42,20.51-28.72,39.25-44.06,57.6c-28.58,34.17-58.37,66.79-87.84,99.8
					c-38.25,42.85-74.79,84.99-108.41,133.64c-34.77,50.35-67.98,102.36-101.87,153.66c-22.95,34.75-45.88,73.78-78.99,95.1
					c-41.47,26.66-75.51-1.45-117.44-1.78c-36.08-0.29-33.42-102.33-38-130.7c-4.6-28.72-14.74-55.45-18.67-84.24
					c-4.9-35.94-4.96-72.7-6.17-109.02c-1.46-44.43-2.05-86.72-40.94-103.66c-22.14-9.63-46.09-11.65-69-17.42
					C21.75,1405.76-6.25,1399.36-6.58,1374.99z"/>
				<path class="st0" d="M11.16,1361.26c-3.78-64.67-26.12-147.45-5-214.21c18.05-57.05,74.5-64.45,112.5-94.42
					c31.38-24.72,45.35-65.17,61.03-104.91c12.58-31.88,24.79-64.06,39.07-94.92c10.53-22.74,26.6-61.13,48.49-65.84
					c19.68-4.23,40.78,29.66,51.82,46.91c16.11,25.17,29.9,52.51,44.13,79.28c25.01,47.02,50.62,89.29,87.23,123.83
					c36.77,34.69,77,60.62,117.65,87.61c31.81,21.12,63.45,42.85,93.67,67.24c22.51,18.15,54.88,41.39,65.18,73.76
					c8.15,25.61-33.2,68.11-45.39,83.11c-25.1,30.84-51.7,59.79-78.35,88.56c-32.49,35.06-66.01,65.72-94.7,105.72
					c-51.31,71.51-94.2,160.55-160.23,213.7c-39.82,32.06-84.14,40.25-128.43,35.46c-17.54-1.9-21.75-32.12-23.96-49.75
					c-3.68-29.29-4.14-59.08-6.96-88.48c-2.65-27.53-8.53-53.68-13.26-80.67c-4.79-27.35-6.14-55.37-9.67-82.91
					c-2.19-17.1-4.35-36.99-13.91-50.73c-9.89-14.23-26.22-20.19-40.49-24.72C84.79,1406.44,13.83,1406.9,11.16,1361.26z"/>
				<path class="st0" d="M33.99,1334.19c-6.36-59.37-15.26-133.31,10.65-188c21.18-44.72,66.34-54.37,98.6-83.51
					c26.83-24.23,36.97-62.77,50.29-98.59c10.93-29.38,21.91-58.88,35.16-86.84c10.05-21.2,22.99-49.95,42.94-57.34
					c17.05-6.32,36.32,21.99,45.77,36.08c16.1,24.02,29.22,50.92,42.26,77.48c21.32,43.45,40.94,89.86,71.29,125.2
					c29.49,34.29,64.52,54.54,100.21,77.3c27.33,17.44,54.5,35.55,80.25,56.34c19.78,15.96,44.28,34.87,54.59,61.42
					c8.91,22.9-13.97,50.01-25.4,66.16c-18.88,26.66-39.83,51.12-60.49,75.68c-22.3,26.49-46.99,50.93-68.56,78.08
					c-45.37,57.12-81.61,120.37-137.53,164.14c-36.21,28.35-84.94,54.1-127.75,49.47c-30.79-3.34-28.76-86.5-31.72-113.07
					c-4.86-43.45-14.25-89.1-29.17-129.12c-12.81-34.29-43.25-44.87-71.24-52.56c-17.54-4.83-35.92-7.44-52.89-14.9
					C41.61,1368.95,36.65,1359.07,33.99,1334.19z"/>
				<path class="st0" d="M55.28,1306.36c-3.79-50.19-2.94-109.54,21.59-152.96c21.5-38.03,59.77-48.04,86.99-78
					c21.24-23.37,29.59-61.48,41.01-92.39c13.96-37.79,33.53-107.59,68.75-121.81c32.77-13.22,67.03,71.24,78.89,96.42
					c18.78,39.86,34.48,83.58,57.26,120.39c19.61,31.69,45.89,49.21,73.79,68.04c35.56,24.05,89.56,52.56,108.57,99.42
					c14.17,34.92-31.91,86.83-47.65,111.03c-16.46,25.27-28.86,55.23-45.84,79.61c-26.81,38.48-70.24,69.45-106.11,93.09
					c-34.87,23-80.14,48.45-119.69,46.93c-26-0.99-30.94-49.99-36.49-73.93c-7.95-34.03-18.51-64.52-41.21-87.67
					c-23.1-23.56-50.33-34.66-78.95-44.38c-14.69-4.95-31.45-8.81-44.6-18.82C57.07,1340.46,56.74,1325.65,55.28,1306.36z"/>
				<path class="st0" d="M81.22,1277.43c0.21-43.36,8.33-89.6,32.42-123.05c20.06-27.86,51.46-37.17,70.66-65.65
					c15.21-22.55,22.95-54.2,33.14-80.39c12.45-32.09,30.07-88.14,61.04-99.28c30.23-10.84,56.96,50.9,68.55,75.33
					c16.97,35.82,30.71,73.79,47.84,109.52c13.42,28.03,29.82,46.09,51.67,64.16c25.64,21.22,61.42,44.72,75.12,79.82
					c9.88,25.42-14.03,66.03-22.71,88.42c-5.82,15.04-11.15,30.31-14.07,46.61c-2.28,12.69-2.51,24.44-9.11,35.34
					c-16.62,27.42-53.07,30.99-77.81,40.03c-32.85,11.99-67.69,25.62-102.07,28.22c-21.13,1.63-31.91-22.13-43.97-38.85
					c-14.25-19.76-34.42-33.97-52.04-48.88c-23.25-19.71-48.56-31.97-74.73-44.52c-11.81-5.67-25.68-11.22-34.83-22.49
					C80.77,1310.1,81.15,1293.08,81.22,1277.43z"/>
				<path class="st0" d="M108.47,1251.69c4.17-36.42,17.18-71.22,39.16-96.97c16.84-19.77,39.21-30.89,52.73-54.64
					c12.6-22.14,21.37-47.31,31.78-70.98c11.01-25.02,27.37-66.85,52.76-73.66c27.37-7.33,48.45,34.86,60.13,58.24
					c14.75,29.55,25.95,61.34,39.14,91.91c9.93,22.78,22.61,43.62,37.6,61.82c15.72,19.18,37.04,37.55,44.99,63.93
					c7.03,23.36-6.12,51.63-8.45,75.32c-2.48,25.31,1.87,51.89-11.9,73.63c-28.4,44.82-99.66,36.51-140.41,37.47
					c-40.2,0.99-72.52-26.44-105.05-52.53c-21.49-17.23-43.87-31.81-65.9-47.86C112.6,1300.98,104.8,1283.74,108.47,1251.69z"/>
				<path class="st0" d="M133.78,1230.85c12.35-52.76,50.9-80.8,78.47-120.67c22.55-32.64,39.46-100.24,77.45-109.18
					c43.12-10.15,68.94,79.42,83.93,113.98c16.64,38.33,46.26,69.5,58.58,110.08c6.48,21.3,0.91,41.17-2.53,62.45
					c-3.78,23.37-6.62,47.27-19.67,66.08c-25.69,37.02-75.85,36.77-111.98,37.78c-37.4,1.06-70.48-24.31-100.28-49.63
					C166.14,1314.92,121.14,1284.95,133.78,1230.85z"/>
				<path class="st0" d="M154.46,1216.54c13.91-37.59,43.14-68.15,66.86-97c19.8-24.05,41.1-72.46,71.28-75.92
					c35.48-4.07,56.98,47.63,70.94,79.33c13.74,31.15,33.54,64.04,41.14,98.23c7.93,35.61-13.19,83.58-33.34,108.78
					c-22.47,28.1-59.24,38.48-90.79,37.36c-33.03-1.14-63.34-24.36-88.36-48.45C165.46,1293.11,138.28,1260.18,154.46,1216.54z"/>
				<path class="st0" d="M173.65,1209.46c13.29-31.26,36.32-57.71,57.56-81.3c16.39-18.21,40.57-49.18,64.22-49.94
					c26.01-0.84,48.06,25.16,58.4,51.8c10.19,26.28,20.94,59.23,22.46,88.06c3.31,62.78-64.15,133.11-114.81,127.39
					C213.44,1340.05,147.15,1271.75,173.65,1209.46z"/>
				<path class="st0" d="M191.39,1206.02c18.33-40.73,62.86-98.81,104.08-100.19c47.32-1.58,59.19,63.05,53.03,109.88
					c-6.27,47.8-60.82,116.98-104.32,107.63C201.73,1314.22,169.67,1254.33,191.39,1206.02z"/>
				<path class="st0" d="M210.13,1199.43c15.52-34.11,48.64-76.71,83.18-78c41.16-1.53,40.38,53.03,31.05,86.99
					c-9.71,35.26-52.45,95.48-88.49,85.97C200.82,1285.11,195.25,1232.12,210.13,1199.43z"/>
				<path class="st0" d="M226.44,1195.5c10.24-24.34,35.88-55.1,60.26-56.08c29.79-1.18,24,42.09,16.3,62.98
					c-9.15,24.85-39.82,68.04-65.55,61.04C212.11,1256.55,217.99,1215.56,226.44,1195.5z"/>
				<path class="st0" d="M1627.92,2586.01c-65.94,48.83-140.49,89.13-210.78,130.1c-102.73,59.86-206.97,118.11-314.91,162.7
					c-57.87,23.9-132.86,58.36-194.96,39.63c-22.7-6.84-43.41-27.54-63.76-41c-28.07-18.55-56.55-36.18-84.99-53.84
					c-57.04-35.42-114.26-70.48-170.31-108.16c-26.99-18.15-53.19-41.02-81.29-56.5c-16.42-9.06-36.07-4.82-53.62-4.25
					c-40.65,1.33-81.27,3.86-121.9,6.01c-49.69,2.63-99.49,5.42-149.24,4.38c-22.44-0.47-77.39,4.39-89.74-19.2
					c-6.65-12.7,9.02-35.6,16.28-46.2c13.33-19.48,28.65-37.03,43.77-54.4c34.97-40.18,72.1-78.44,103.18-123.31
					c15.97-23.07,36.89-51.26,26.47-82.75c-10.52-31.81-28.75-59.36-39.87-91.06c-12.8-36.48-18.11-74.45-24.16-113.13
					c-4.48-28.59-14.9-53.92-24.7-80.28c-10.83-29.13-22.05-58.52-29.57-89.24c-4.97-20.3-12.99-56.81,4.4-69.66
					c24.7-18.27,71.03-3.48,99.18,1.91c38.92,7.43,77.55,16.89,116.36,25.04c28.18,5.93,56.45,12.42,85.09,13.12
					c46.18,1.12,92.51-2.75,138.56-6.34c85.28-6.66,169.95-15.68,255.51-15.68c74.97,0,248.2,105.84,288.75,124.48
					c80.94,37.2,164.03,72.47,240.63,121.97c20.72,13.4,52.61,31.26,63.51,58.84c6.73,17,3.63,26.82,19.5,37.78
					c21.64,14.94,49.37,20.81,73.33,27.49c38.58,10.76,77.47,19.88,116.23,29.63c78.4,19.66,156.26,41.9,234.34,63.31
					c23.6,6.47,52.16,7.9,74.66,19.3c14.5,7.32,13,16.53,1.77,27.65c-19.69,19.51-47.29,30.35-70.56,41.48
					c-34.08,16.31-68.73,30.85-103.39,45.19c-34.66,14.34-69.5,28.24-104.17,42.61C1674.62,2563.08,1648.5,2570.77,1627.92,2586.01z
					"/>
				<path class="st0" d="M1573.65,2575.27c-69.75,48.93-147.18,87.9-221.82,125.93c-95.53,48.7-193.22,94.34-293.88,124.78
					c-59.1,17.86-128.83,37.58-189.21,17.1c-21.54-7.31-37.64-23.74-56.1-38.24c-21.05-16.55-42.91-31.71-64.77-46.63
					c-45-30.72-90.47-60.39-136.41-89.01c-24.34-15.22-51.12-35.6-78.62-40.89c-21.86-4.2-46.69,1.88-68.64,3.65
					c-39.54,3.18-79.07,6.47-118.63,9.26c-45.64,3.21-91.42,6.18-137.16,5.67c-25.49-0.29-69.26,4.45-87.29-15.66
					c-15.73-17.55,41.54-81,51.61-93.06c31.45-37.64,64.53-73.48,93.81-113.74c17.3-23.74,38.37-52.61,45.66-84.07
					c6.21-26.81-5.77-57.36-12.85-82.15c-8.85-31.05-15.99-63.23-26.27-93.62c-9.16-27.08-23.73-51.2-36.53-75.82
					c-14.08-27.08-28.34-54.6-38.79-84.15c-6.4-18.18-17-48.62-4.27-65.95c14.7-19.98,60.02-6.92,78.65-4.07
					c37.79,5.85,75.29,14.56,112.82,22.35c62.34,12.94,121.77,24.25,185.25,21.54c82.67-3.54,165.25-11.87,247.9-16.48
					c30.52-1.72,61.53-5.18,92.07-3.31c17.51,1.08,30.84,7.61,41.03,22.33c13.91,20.1,45.94,31.22,68.22,42.76
					c34.74,17.97,69.92,34.68,104.99,51.62c77.01,37.19,155.5,73.03,228.53,121.12c23.11,15.21,49.56,32.17,66.65,57.3
					c9.54,14.01,7.13,27.51,12.95,42.41c7.71,19.59,33.05,28.43,48.19,34.84c29.23,12.38,59.67,20.68,89.86,28.45
					c68.33,17.58,136.82,29.15,206.26,37.66c16.27,1.98,80.35,8.83,46.7,41.86c-37.18,36.5-90.88,54.4-134.65,74.97
					C1649.49,2532.55,1610.02,2549.76,1573.65,2575.27z"/>
				<path class="st0" d="M1477.26,2566.22c-65.57,43.04-138.2,75.16-208.81,105.88c-85.69,37.28-173.53,70.51-263.4,89.12
					c-56.46,11.68-118.7,20.66-174.77,1.24c-38.29-13.25-67.92-49.08-101.55-73.72s-68.63-47.78-104.67-67.07
					c-22.37-11.97-46.43-24.03-71.32-22.45c-60.52,3.83-120.96,12.97-181.54,17.4c-40.08,2.96-80.23,5.4-120.43,4.67
					c-24.24-0.43-57.54,1.34-79-14.22c-23.72-17.21,102.59-164.17,114.52-180.71c29.93-41.47,66.17-96.52,60.39-155.5
					c-5.54-56.38-29.52-98.48-56.66-142.66c-15.4-25.13-64.78-92.27-46.48-124.95c10.45-18.68,44.92-12.21,61.29-10.94
					c32.26,2.51,64.35,7.9,96.44,12.58c46.8,6.78,94.88,17.26,141.88,20.33c32.73,2.13,65.65-0.72,98.43-0.78
					c47.01-0.08,94.01,0.36,141.02,0.87c39.47,0.43,79.27,0,118.6,4.62c24.45,2.84,43.01,9.23,60.55,27.28
					c15.26,15.7,38.29,24.89,57.74,34.88c32.13,16.48,64.67,31.76,97.12,47.28c67.92,32.51,136.63,64.33,201.64,104.96
					c29.68,18.53,79.58,44.49,86.54,89.43c2.51,16.2,4.36,23.21,17.33,32.42c18.41,13.07,40.45,18.97,61.1,24.09
					c48.14,11.95,97.68,10.16,145.73,21.97c19.57,4.87,45.13,15.37,22.78,39.43c-26.07,28.13-64.03,43.6-95.26,60.98
					c-15.59,8.67-31.66,16.79-46.46,27.37C1498.62,2548.18,1488.89,2558.64,1477.26,2566.22z"/>
				<path class="st0" d="M1353.07,2552.78c-60.57,34.96-126.36,60.38-190.96,83.29c-71.76,25.42-145.25,46.47-219.71,55.43
					c-51.41,6.21-106.2,8.04-156.1-10.96c-31.56-12.02-52.95-37.29-80.11-58.48c-40.98-32.03-85.33-57.41-134.56-51.23
					c-55.2,6.91-110.58,12.09-166.15,15.55c-33.52,2.09-67.16,3.65-100.72,2.2c-21.22-0.91-48.55-2.45-67.01-14.17
					c-24.7-15.71,68.07-135.24,79.63-152.66c28.68-43.21,49.7-88.54,61.98-142.07c10.02-43.68-10.45-78.02-31.56-110.69
					c-13.12-20.29-55.53-71.33-42.25-97.68c7.28-14.53,31.28-13.78,44.17-14.52c24.57-1.41,49.24,0.06,73.8,0.7
					c36.28,0.99,74.89-5.81,110.86-0.34c79.71,12.12,159.22,22.61,239.42,30.91c44.21,4.57,88.69,8.73,132.51,17.55
					c15.73,3.17,31.98,6.52,46.88,13.69c9.59,4.6,14.82,12.44,22.91,18.88c38.58,30.63,88.94,46.38,132.4,66.01
					c57.77,26.09,115.84,51.78,172.07,82.6c29.58,16.21,70.88,34.84,91.23,67.93c6.15,10,3.53,17.99,7.4,27.61
					c4.45,11.09,17.97,14.39,26.7,17.48c19.82,7.02,102.76,17.63,64.54,58.8c-18.24,19.61-41.48,32.19-62.04,47.6
					c-7.44,5.58-14.7,11.2-20.91,18.73C1377.13,2537.57,1366.9,2544.77,1353.07,2552.78z"/>
				<path class="st0" d="M1220.76,2537.64c-119.58,56.56-259.73,95.1-390.1,87.63c-43.36-2.49-90-10.81-127.58-39.27
					c-22.16-16.81-39.87-35.79-66.49-41.86c-19.22-4.38-39.91,0.59-59.24,2.39c-28,2.61-56.01,4.94-84.05,6.83
					c-34.76,2.3-69.63,4.08-104.46,3.13c-24.88-0.68-59.25,0.09-80.86-16.23c-25.81-19.46,39.88-110.75,49.13-127.02
					c22.4-39.43,38.11-77.62,43.79-125.14c1.67-13.84,7.3-28.03,6.57-41.99c-0.76-14.25-7.95-26.94-14.6-38.14
					c-8.68-14.68-38.81-49.51-30.19-67.42c4.77-9.89,22.66-11.13,31.94-13.23c17.4-3.96,35.05-6.08,52.56-9.23
					c29.7-5.36,59.19-22.81,89-22.32c80.15,1.31,161.46,31.64,240.01,48.3c46.7,9.94,93.71,18.96,139.84,32.41
					c14.6,4.26,29.63,8.67,43.5,15.9c9.68,5.04,15.9,14.03,24.87,19.68c34.39,21.69,73.93,34.85,110.86,49.44
					c47.94,18.99,96.04,37.4,143.64,57.61c29.84,12.67,68.21,23.81,93.92,47.31c18.78,17.16,5.94,22.29-3.96,38.27
					c-5.06,8.15-3.89,16.18-6.09,25.4c-3.14,13.17-12.01,22.65-20.33,31.18c-11.47,11.78-26.76,21.48-36.14,35.91
					c-3.31,5.08-3.15,11.39-5.83,15.82C1252.65,2525.96,1232,2532.32,1220.76,2537.64z"/>
				<path class="st0" d="M1093.62,2517.49c-97.05,35.56-205.04,55.81-307.63,46.41c-35.69-3.27-71.61-10.88-104.86-27.59
					c-15.13-7.58-26.48-16.02-43.06-16.48c-38.46-1.05-77.05,2.62-115.5,3.5c-27.52,0.63-55.18,0.86-82.63-1.84
					c-18.36-1.8-43.18-3.96-58.22-17.7c-21.85-20.01,17.6-88.04,25.63-106.83c13.31-31.17,26.51-65.82,21.23-101.89
					c-1.62-11.03-4.48-20.77-4.86-32.02c-0.36-9.66,0.64-18.59-2.17-27.83c-3.47-11.45-18.92-29.23-13.61-39.77
					c3.62-7.2,14.35-7.54,21.49-9.84c11.58-3.74,22.88-8.64,33.8-14.66c11.49-6.37,21.28-16.21,33.19-21.47
					c19.33-8.53,40.96-9.33,61.28-9.29c81.06,0.16,163.15,19.68,242.15,40.08c41.14,10.62,82.51,21.95,122.49,38.06
					c12.14,4.9,25.9,9.81,36.58,18.85c6.66,5.63,11.18,12.68,18.75,16.92c64.65,36.14,139.39,49.57,208.01,75.67
					c17.86,6.8,116.86,41.13,65.1,73.43c-31.44,19.63-64.67,28.55-93.36,55.39c-8.74,8.16-14.57,14.92-17.98,27.37
					c-2.25,8.29,3.16,4.09-4.39,12.75C1125.86,2509.14,1104.92,2513.35,1093.62,2517.49z"/>
				<path class="st0" d="M992.7,2496.47c-113.63,29.03-233.96,30.41-349.38,4.67c-29.1-6.48-59.38-4.93-88.83-6.58
					c-28.62-1.58-79.5,1.71-100.29-25.15c-15.07-19.47,1.28-60.84,6.94-82.62c7.21-27.74,13.51-56.41,1.67-83.35
					c-6.93-15.78-16.43-30.8-23.86-46.43c-3.55-7.47-10.88-18.91-7.82-25.98c5.05-11.67,28.67-16.58,40.13-22.08
					c36.63-17.59,75.42-22.07,114.58-21.95c72.33,0.23,145.04,12.3,215.99,28.67c32.64,7.54,65.74,15.57,97.23,28.67
					c17.82,7.41,30.96,21.7,47.97,30.17c54.78,27.3,113.63,41.89,169.35,66.85c16.13,7.23,76.37,31.29,46.02,59.67
					c-29.38,27.47-72.24,24.2-102.78,50.04c-3.46,2.96-7.73,6.5-9.74,11.28c-1.18,2.86,0.9,8.3,0,9.93
					C1040.47,2489.98,1007.12,2492.79,992.7,2496.47z"/>
				<path class="st0" d="M919.08,2477.28c-58.29,9.76-117.87,12.18-177.15,12.79c-32.4,0.34-68,2.86-99.7-7.16
					c-19.47-6.17-38.28-11.56-58.36-15.45c-21.6-4.18-56.38-7.23-69.53-29.91c-9.83-16.95-3.09-51.78-2.73-72.39
					c0.38-22.6-3.42-39.36-16.49-55.53c-8.22-10.18-45.93-47.15-41.57-57.81c4.15-10.15,30.42-11.71,41.78-14.35
					c35.91-8.37,72.29-11.28,108.81-10.83c56.57,0.69,113.34,7.73,169.02,19.83c23.02,5.03,46.81,10.23,68.8,20.28
					c14.81,6.77,27.16,18.78,41.87,25.78c42.13,20.08,86.68,33.72,128.96,54.16c13.57,6.57,57.77,24.08,47.18,51.05
					c-8.84,22.52-38.89,29.37-53.66,44.47C981.19,2467.96,951.12,2471.93,919.08,2477.28z"/>
				<path class="st0" d="M882.36,2464.34c-46.24,6.46-93.56,9.28-140.48,9.42c-30.28,0.09-62.23,0.59-91.94-7.71
					c-14.93-4.17-27.9-13.92-42.02-20.87c-14.55-7.15-34.62-15.13-40.91-31.53c-5.91-15.41-3.7-37.89-8.89-56.47
					c-4.61-16.49-14.27-26.67-24.67-37.81c-6.63-7.12-40.66-37.95-36.72-44.76c4.22-7.29,24.66-6.7,35.29-7.7
					c29.3-2.82,58.71-3.72,88.09-2.7c40.1,1.5,80.51,5.69,119.91,15.17c27.95,6.72,49.04,22.72,75.1,34.45
					c33.76,15.24,68.74,27.29,102.18,43.96c16.66,8.31,41.33,18.99,49.86,40.44c3.28,8.22,6.47,29.12,2.81,37.34
					c-4.39,9.88-20.72,14.07-28.43,16.6C922.23,2458.51,902.01,2461.59,882.36,2464.34z"/>
			</g>
		</g>
	</g>
</g>
</svg>
